{"title":"Fantastic 4 2015 V2 TS XviD AC3-MenaceIISociety","uid":12252622,"size":1296006250,"categoryP":"video","categoryS":"movies","magnet":"?xt=urn:btih:b957b97c2a335041b8aeb35afe53fa63fc6c7667&amp;dn=Fantastic+4+2015+V2+TS+XviD+AC3-MenaceIISociety&amp;tr=udp%3A%2F%2Ftracker.openbittorrent.com%3A80&amp;tr=udp%3A%2F%2Fopen.demonii.com%3A1337&amp;tr=udp%3A%2F%2Ftracker.coppersurfer.tk%3A6969&amp;tr=udp%3A%2F%2Fexodus.desync.com%3A6969","seeders":27,"leechers":7,"uploader":"SS132203","files":4,"time":1440051413,"description":"Fantastic 4 2015 V2 TS XviD AC3-MenaceIISociety\n &lt;a href=&quot;\nhttp://imgsparrow.co/image/8Ev&quot; rel=&quot;nofollow&quot; target=&quot;_NEW&quot;&gt;\nhttp://imgsparrow.co/image/8Ev&lt;/a&gt;\n &lt;a href=&quot;\nhttp://imgsparrow.co/image/9b&quot; rel=&quot;nofollow&quot; target=&quot;_NEW&quot;&gt;\nhttp://imgsparrow.co/image/9b&lt;/a&gt;\n\nInfo : - \n\nThank MenaceIISociety Not ME!\n &lt;a href=&quot;\nhttp://www.imdb.com/title/tt1502712/&quot; rel=&quot;nofollow&quot; target=&quot;_NEW&quot;&gt;\nhttp://www.imdb.com/title/tt1502712/&lt;/a&gt;\nSource: NEW.HDTS-MRG [THANKS]\n\nNOTE: Fixed perspective best i could mainly the right, adjusted some gamma, levels, sat\n\nGeneral\nComplete name: Fantastic.4.2015.V2.TS.XviD.AC3-MenaceIISociety.avi\nFormat: AVI\nFormat/Info: Audio Video Interleave\nFile size: 1.17 GiB\nDuration: 1h 34mn\nOverall bit rate: 1 777 Kbps\n\nVideo\nID: 0\nFormat: MPEG-4 Visual\nFormat profile: Advanced Simple@L5\nFormat settings, BVOP: 2\nFormat settings, QPel: No\nFormat settings, GMC: No warppoints\nFormat settings, Matrix: Default (H.263)\nMuxing mode: Packed bitstream\nCodec ID: XVID\nCodec ID/Hint: XviD\nDuration: 1h 34mn\nBit rate: 1 448 Kbps\nWidth: 720 pixels\nHeight: 288 pixels\nDisplay aspect ratio: 2.500\nFrame rate: 29.970 fps\nColor space: YUV\nChroma subsampling: 4:2:0\nBit depth: 8 bits\nScan type: Progressive\nCompression mode: Lossy\nBits/(Pixel*Frame): 0.233\nStream size: 979 MiB (81%)\nWriting library: XviD 73\n\nAudio\nID: 1\nFormat: AC-3\nFormat/Info: Audio Coding 3\nMode extension: CM (complete main)\nFormat settings, Endianness: Big\nCodec ID: 2000\nDuration: 1h 34mn\nBit rate mode: Constant\nBit rate: 320 Kbps\nChannel(s): 2 channels\nChannel positions: Front: L R\nSampling rate: 48.0 KHz\nCompression mode: Lossy\nStream size: 216 MiB (18%)\nAlignment: Aligned on interleaves\nInterleave, duration: 64 ms (1.92 video frames)\nInterleave, preload duration: 192 ms\nTitle: Fantastic \n\nScreens : - \n &lt;a href=&quot;\nhttp://imgsparrow.co/image/8rz&quot; rel=&quot;nofollow&quot; target=&quot;_NEW&quot;&gt;\nhttp://imgsparrow.co/image/8rz&lt;/a&gt; &lt;a href=&quot;\nhttp://imgsparrow.co/image/8r7&quot; rel=&quot;nofollow&quot; target=&quot;_NEW&quot;&gt;\nhttp://imgsparrow.co/image/8r7&lt;/a&gt; &lt;a href=&quot;\nhttp://imgsparrow.co/image/8rk&quot; rel=&quot;nofollow&quot; target=&quot;_NEW&quot;&gt;\nhttp://imgsparrow.co/image/8rk&lt;/a&gt; &lt;a href=&quot;\nhttp://imgsparrow.co/image/8rn&quot; rel=&quot;nofollow&quot; target=&quot;_NEW&quot;&gt;\nhttp://imgsparrow.co/image/8rn&lt;/a&gt; &lt;a href=&quot;\nhttp://imgsparrow.co/image/8ry&quot; rel=&quot;nofollow&quot; target=&quot;_NEW&quot;&gt;\nhttp://imgsparrow.co/image/8ry&lt;/a&gt; &lt;a href=&quot;\nhttp://imgsparrow.co/image/8r5&quot; rel=&quot;nofollow&quot; target=&quot;_NEW&quot;&gt;\nhttp://imgsparrow.co/image/8r5&lt;/a&gt;\n &lt;a href=&quot;\nhttp://imgsparrow.co/image/N2&quot; rel=&quot;nofollow&quot; target=&quot;_NEW&quot;&gt;\nhttp://imgsparrow.co/image/N2&lt;/a&gt;","torrent":{"xt":"urn:btih:b957b97c2a335041b8aeb35afe53fa63fc6c7667","amp;dn":"Fantastic+4+2015+V2+TS+XviD+AC3-MenaceIISociety","amp;tr":["udp%3A%2F%2Ftracker.openbittorrent.com%3A80","udp%3A%2F%2Fopen.demonii.com%3A1337","udp%3A%2F%2Ftracker.coppersurfer.tk%3A6969","udp%3A%2F%2Fexodus.desync.com%3A6969"],"infoHash":"b957b97c2a335041b8aeb35afe53fa63fc6c7667","infoHashBuffer":{"type":"Buffer","data":[185,87,185,124,42,51,80,65,184,174,179,90,254,83,250,99,252,108,118,103]},"announce":[],"urlList":[]}}